<?xml version="1.0" standalone="no"?>
<!DOCTYPE svg PUBLIC "-//W3C//DTD SVG 20010904//EN"
 "http://www.w3.org/TR/2001/REC-SVG-20010904/DTD/svg10.dtd">
<svg version="1.0" xmlns="http://www.w3.org/2000/svg"
 width="200.000000pt" height="97.000000pt" viewBox="0 0 200.000000 97.000000"
 preserveAspectRatio="xMidYMid meet">

<g transform="translate(0.000000,97.000000) scale(0.100000,-0.100000)"
fill="#000000" stroke="none">
<path d="M761 831 c-33 -49 -62 -93 -63 -98 -2 -5 39 -55 91 -111 l95 -102 63
0 c35 0 63 2 63 5 0 2 -29 48 -64 102 l-64 98 33 45 33 45 71 3 70 3 6 -35
c17 -91 119 -122 188 -58 56 53 26 160 -51 182 -20 5 -121 10 -224 10 l-187 0
-60 -89z"/>
<path d="M82 328 c-16 -16 -16 -170 0 -186 7 -7 42 -12 86 -12 63 0 73 2 70
17 -2 12 -15 16 -58 17 l-55 1 -3 73 -3 72 61 0 c47 0 60 3 60 15 0 12 -15 15
-73 15 -43 0 -78 -5 -85 -12z"/>
<path d="M1370 235 l0 -105 71 0 c39 0 79 5 90 10 23 13 26 72 4 90 -11 9 -12
16 -4 26 6 7 9 28 7 46 l-3 33 -82 3 -83 3 0 -106z m126 60 c9 -23 -15 -45
-48 -45 -30 0 -44 19 -34 45 7 20 75 20 82 0z m10 -90 c10 -24 -15 -45 -53
-45 -35 0 -50 17 -39 45 8 21 84 21 92 0z"/>
<path d="M693 313 c-4 -10 -11 -21 -17 -25 -8 -5 -7 -13 2 -28 6 -11 12 -39
12 -63 0 -24 5 -48 12 -55 18 -18 88 -16 88 3 0 9 -9 15 -25 15 -23 0 -25 3
-25 50 0 43 3 50 20 50 11 0 20 7 20 15 0 8 -9 15 -20 15 -13 0 -20 7 -20 20
0 25 -38 27 -47 3z"/>
<path d="M1233 310 c-3 -11 -9 -20 -14 -20 -5 0 -9 -7 -9 -15 0 -8 5 -15 10
-15 6 0 10 -24 10 -53 0 -29 5 -58 12 -65 18 -18 88 -16 88 3 0 9 -9 15 -25
15 -23 0 -25 3 -25 50 0 43 3 50 20 50 11 0 20 7 20 15 0 8 -9 15 -20 15 -13
0 -20 7 -20 20 0 14 -7 20 -21 20 -12 0 -23 -8 -26 -20z"/>
<path d="M282 278 c-17 -17 -16 -122 2 -137 9 -7 40 -11 78 -9 l63 3 9 38 c6
23 6 51 0 75 l-9 37 -65 3 c-42 2 -70 -2 -78 -10z m103 -68 c0 -43 -1 -45 -32
-48 -34 -3 -35 -1 -35 48 0 49 1 51 35 48 31 -3 32 -5 32 -48z"/>
<path d="M480 208 c0 -71 2 -78 20 -78 18 0 20 7 20 60 0 55 2 60 24 66 38 9
46 -2 46 -67 0 -56 1 -59 25 -59 24 0 25 2 25 69 0 43 -5 72 -13 79 -7 6 -43
10 -80 10 l-67 -1 0 -79z"/>
<path d="M832 278 c-7 -7 -12 -37 -12 -68 0 -31 5 -61 12 -68 18 -18 138 -16
138 2 0 11 -15 16 -52 18 -69 4 -68 22 2 28 55 5 55 5 54 38 -3 58 -8 62 -72
62 -32 0 -63 -5 -70 -12z m96 -35 c-4 -20 -45 -30 -60 -15 -16 16 1 32 33 32
24 0 30 -4 27 -17z"/>
<path d="M1020 208 c0 -71 2 -78 20 -78 18 0 20 7 20 60 0 55 2 60 24 66 38 9
46 -2 46 -67 0 -56 1 -59 25 -59 24 0 25 2 25 69 0 43 -5 72 -13 79 -7 6 -43
10 -80 10 l-67 -1 0 -79z"/>
<path d="M1602 278 c-17 -17 -16 -122 2 -137 9 -7 40 -11 78 -9 l63 3 9 38 c6
23 6 51 0 75 l-9 37 -65 3 c-42 2 -70 -2 -78 -10z m103 -68 c0 -43 -1 -45 -32
-48 -26 -3 -32 1 -35 20 -2 13 -1 36 1 51 3 25 7 28 35 25 30 -3 31 -5 31 -48z"/>
<path d="M1802 250 l23 -40 -23 -40 -23 -40 25 0 c17 0 30 9 39 27 l14 26 18
-26 c11 -17 26 -27 41 -27 l25 0 -23 40 -23 40 23 40 23 40 -24 0 c-14 0 -32
-10 -41 -22 l-16 -23 -16 23 c-9 12 -27 22 -41 22 l-24 0 23 -40z"/>
</g>
</svg>
